<svg width="67" height="60" viewBox="0 0 67 60" fill="none" xmlns="http://www.w3.org/2000/svg">
<path d="M5.896 7.77783C5.0415 7.77783 4.37988 8.1001 3.91113 8.74463C3.44238 9.38428 3.20801 10.2778 3.20801 11.4253C3.20801 13.813 4.104 15.0068 5.896 15.0068C6.64795 15.0068 7.55859 14.8188 8.62793 14.4429V16.3472C7.74902 16.7134 6.76758 16.8965 5.68359 16.8965C4.12598 16.8965 2.93457 16.4253 2.10938 15.4829C1.28418 14.5356 0.871582 13.1782 0.871582 11.4106C0.871582 10.2974 1.07422 9.32324 1.47949 8.48828C1.88477 7.64844 2.46582 7.00635 3.22266 6.56201C3.98438 6.11279 4.87549 5.88818 5.896 5.88818C6.93604 5.88818 7.98096 6.13965 9.03076 6.64258L8.29834 8.48828C7.89795 8.29785 7.49512 8.13184 7.08984 7.99023C6.68457 7.84863 6.28662 7.77783 5.896 7.77783ZM15.9375 16.75L15.5054 15.6367H15.4468C15.0708 16.1104 14.6826 16.4399 14.2822 16.6255C13.8867 16.8062 13.3691 16.8965 12.7295 16.8965C11.9434 16.8965 11.3232 16.6719 10.8691 16.2227C10.4199 15.7734 10.1953 15.1338 10.1953 14.3037C10.1953 13.4346 10.498 12.7949 11.1035 12.3848C11.7139 11.9697 12.6318 11.7402 13.8574 11.6963L15.2783 11.6523V11.2935C15.2783 10.4634 14.8535 10.0483 14.0039 10.0483C13.3496 10.0483 12.5806 10.2461 11.6968 10.6416L10.957 9.13281C11.8994 8.63965 12.9443 8.39307 14.0918 8.39307C15.1904 8.39307 16.0327 8.63232 16.6187 9.11084C17.2046 9.58936 17.4976 10.3169 17.4976 11.2935V16.75H15.9375ZM15.2783 12.9561L14.4141 12.9854C13.7646 13.0049 13.2812 13.1221 12.9639 13.3369C12.6465 13.5518 12.4878 13.8789 12.4878 14.3184C12.4878 14.9482 12.8491 15.2632 13.5718 15.2632C14.0894 15.2632 14.502 15.1143 14.8096 14.8164C15.1221 14.5186 15.2783 14.123 15.2783 13.6299V12.9561ZM22.0386 16.75H19.8047V5.35352H22.0386V16.75ZM26.6235 16.75H24.3896V5.35352H26.6235V16.75ZM42.5464 16.75H39.6606L35.0024 8.64941H34.9365C35.0293 10.0801 35.0757 11.1006 35.0757 11.7109V16.75H33.0469V6.04199H35.9106L40.5615 14.062H40.6128C40.5396 12.6704 40.5029 11.6865 40.5029 11.1104V6.04199H42.5464V16.75ZM46.853 12.6411C46.853 13.4517 46.9849 14.0645 47.2485 14.4795C47.5171 14.8945 47.9517 15.1021 48.5522 15.1021C49.1479 15.1021 49.5752 14.897 49.834 14.4868C50.0977 14.0718 50.2295 13.4565 50.2295 12.6411C50.2295 11.8306 50.0977 11.2227 49.834 10.8174C49.5703 10.4121 49.1382 10.2095 48.5376 10.2095C47.9419 10.2095 47.5122 10.4121 47.2485 10.8174C46.9849 11.2178 46.853 11.8257 46.853 12.6411ZM52.5146 12.6411C52.5146 13.9741 52.1631 15.0166 51.46 15.7686C50.7568 16.5205 49.7778 16.8965 48.5229 16.8965C47.7368 16.8965 47.0435 16.7256 46.4429 16.3838C45.8423 16.0371 45.3809 15.5415 45.0586 14.897C44.7363 14.2524 44.5752 13.5005 44.5752 12.6411C44.5752 11.3032 44.9243 10.2632 45.6226 9.521C46.3208 8.77881 47.3022 8.40771 48.5669 8.40771C49.353 8.40771 50.0464 8.57861 50.647 8.92041C51.2476 9.26221 51.709 9.75293 52.0312 10.3926C52.3535 11.0322 52.5146 11.7817 52.5146 12.6411ZM61.0913 16.75L60.4614 13.8862L59.6118 10.2681H59.5605L58.0664 16.75H55.6641L53.335 8.56152H55.5615L56.5063 12.187C56.6577 12.8364 56.8115 13.7324 56.9678 14.875H57.0117C57.0312 14.5039 57.1167 13.9155 57.2681 13.1099L57.3853 12.4873L58.396 8.56152H60.8569L61.8164 12.4873C61.8359 12.5947 61.8652 12.7534 61.9043 12.9634C61.9482 13.1733 61.9897 13.3979 62.0288 13.6372C62.0679 13.8716 62.1021 14.1035 62.1313 14.333C62.1655 14.5576 62.1851 14.7383 62.1899 14.875H62.2339C62.2778 14.5234 62.356 14.0425 62.4683 13.4321C62.5806 12.8169 62.6611 12.4019 62.71 12.187L63.6914 8.56152H65.8813L63.5229 16.75H61.0913Z" fill="#0F62FE"/>
<path d="M34.7917 38.5833C35.8194 38.5833 36.805 38.9916 37.5317 39.7183C38.2584 40.445 38.6667 41.4306 38.6667 42.4583C38.6667 42.8009 38.8028 43.1294 39.045 43.3717C39.2872 43.6139 39.6158 43.75 39.9583 43.75C40.3009 43.75 40.6294 43.6139 40.8717 43.3717C41.1139 43.1294 41.25 42.8009 41.25 42.4583C41.25 40.7455 40.5696 39.1028 39.3584 37.8916C38.1472 36.6804 36.5045 36 34.7917 36C34.4491 36 34.1206 36.1361 33.8783 36.3783C33.6361 36.6206 33.5 36.9491 33.5 37.2917C33.5 37.6342 33.6361 37.9628 33.8783 38.205C34.1206 38.4472 34.4491 38.5833 34.7917 38.5833Z" fill="#0F62FE"/>
<path d="M34.7916 33.4167C37.1896 33.4167 39.4894 34.3693 41.185 36.065C42.8806 37.7606 43.8333 40.0604 43.8333 42.4584C43.8333 42.8009 43.9693 43.1295 44.2116 43.3717C44.4538 43.614 44.7823 43.75 45.1249 43.75C45.4675 43.75 45.796 43.614 46.0383 43.3717C46.2805 43.1295 46.4166 42.8009 46.4166 42.4584C46.4166 39.3752 45.1918 36.4184 43.0117 34.2383C40.8316 32.0581 37.8747 30.8334 34.7916 30.8334C34.449 30.8334 34.1205 30.9695 33.8782 31.2117C33.636 31.4539 33.4999 31.7825 33.4999 32.125C33.4999 32.4676 33.636 32.7962 33.8782 33.0384C34.1205 33.2806 34.449 33.4167 34.7916 33.4167ZM46.0937 48.8005C46.0226 48.5931 45.9 48.4072 45.7373 48.2604C45.5746 48.1135 45.3772 48.0104 45.1637 47.9609L37.4137 46.1913C37.2033 46.1436 36.9843 46.1493 36.7768 46.208C36.5692 46.2667 36.3796 46.3764 36.2253 46.5271C36.0445 46.695 36.0316 46.708 35.192 48.3096C32.4061 47.0259 30.1739 44.7845 28.9016 41.9934C30.542 41.1667 30.5549 41.1667 30.7228 40.973C30.8736 40.8187 30.9833 40.6291 31.042 40.4215C31.1006 40.2139 31.1064 39.995 31.0587 39.7846L29.2891 32.125C29.2395 31.9115 29.1365 31.7141 28.9896 31.5514C28.8427 31.3887 28.6569 31.2661 28.4495 31.195C28.1479 31.0873 27.8364 31.0094 27.5195 30.9625C27.193 30.8868 26.8599 30.8436 26.5249 30.8334C24.9491 30.8334 23.4378 31.4594 22.3235 32.5736C21.2092 33.6879 20.5833 35.1992 20.5833 36.775C20.5901 42.0485 22.688 47.1041 26.4169 50.833C30.1459 54.562 35.2014 56.6599 40.4749 56.6667C41.2552 56.6667 42.0278 56.513 42.7487 56.2144C43.4696 55.9158 44.1246 55.4782 44.6763 54.9264C45.228 54.3747 45.6657 53.7197 45.9643 52.9988C46.2629 52.2779 46.4166 51.5053 46.4166 50.725C46.417 50.3963 46.3911 50.068 46.3391 49.7434C46.2848 49.4225 46.2027 49.107 46.0937 48.8005Z" fill="#0F62FE"/>
</svg>
