<svg width="61" height="58" viewBox="0 0 61 58" fill="none" xmlns="http://www.w3.org/2000/svg">
<path d="M11.7773 16H9.19189L7.7417 10.375C7.68799 10.1748 7.59521 9.76221 7.46338 9.13721C7.33643 8.50732 7.26318 8.08496 7.24365 7.87012C7.21436 8.13379 7.14111 8.55859 7.02393 9.14453C6.90674 9.72559 6.81641 10.1406 6.75293 10.3896L5.31006 16H2.73193L0 5.29199H2.23389L3.60352 11.1367C3.84277 12.2158 4.01611 13.1509 4.12354 13.9419C4.15283 13.6636 4.21875 13.2339 4.32129 12.6528C4.42871 12.0669 4.52881 11.6128 4.62158 11.2905L6.18164 5.29199H8.32764L9.8877 11.2905C9.95605 11.5591 10.0415 11.9692 10.144 12.521C10.2466 13.0728 10.3247 13.5464 10.3784 13.9419C10.4272 13.561 10.5054 13.0874 10.6128 12.521C10.7202 11.9497 10.8179 11.4883 10.9058 11.1367L12.2681 5.29199H14.502L11.7773 16ZM19.0649 9.24707C18.5913 9.24707 18.2202 9.39844 17.9517 9.70117C17.6831 9.99902 17.5293 10.4238 17.4902 10.9756H20.625C20.6152 10.4238 20.4712 9.99902 20.1929 9.70117C19.9146 9.39844 19.5386 9.24707 19.0649 9.24707ZM19.3799 16.1465C18.0615 16.1465 17.0312 15.7827 16.2891 15.0552C15.5469 14.3276 15.1758 13.2974 15.1758 11.9644C15.1758 10.5923 15.5176 9.53271 16.2012 8.78564C16.8896 8.03369 17.8394 7.65771 19.0503 7.65771C20.2075 7.65771 21.1084 7.9873 21.7529 8.64648C22.3975 9.30566 22.7197 10.2163 22.7197 11.3784V12.4624H17.439C17.4634 13.0972 17.6514 13.5928 18.0029 13.9492C18.3545 14.3057 18.8477 14.4839 19.4824 14.4839C19.9756 14.4839 20.4419 14.4326 20.8813 14.3301C21.3208 14.2275 21.7798 14.064 22.2583 13.8394V15.5679C21.8677 15.7632 21.4502 15.9072 21.0059 16C20.5615 16.0977 20.0195 16.1465 19.3799 16.1465ZM29.0918 7.65771C30.0586 7.65771 30.8154 8.03613 31.3623 8.79297C31.9092 9.54492 32.1826 10.5776 32.1826 11.8911C32.1826 13.2437 31.8994 14.291 31.333 15.0332C30.7715 15.7754 30.0049 16.1465 29.0332 16.1465C28.0713 16.1465 27.3169 15.7974 26.77 15.0991H26.6162L26.2427 16H24.5361V4.60352H26.77V7.25488C26.77 7.5918 26.7407 8.13135 26.6821 8.87354H26.77C27.2925 8.06299 28.0664 7.65771 29.0918 7.65771ZM28.374 9.44482C27.8223 9.44482 27.4194 9.61572 27.1655 9.95752C26.9116 10.2944 26.7798 10.8535 26.77 11.6348V11.8765C26.77 12.7554 26.8994 13.3853 27.1582 13.7661C27.4219 14.147 27.8369 14.3374 28.4033 14.3374C28.8623 14.3374 29.2261 14.1274 29.4946 13.7075C29.7681 13.2827 29.9048 12.6675 29.9048 11.8618C29.9048 11.0562 29.7681 10.4531 29.4946 10.0527C29.2212 9.64746 28.8477 9.44482 28.374 9.44482ZM39.7412 13.5684C39.7412 14.4082 39.4482 15.0479 38.8623 15.4873C38.2812 15.9268 37.4097 16.1465 36.2476 16.1465C35.6519 16.1465 35.144 16.105 34.7241 16.022C34.3042 15.9438 33.9111 15.8267 33.5449 15.6704V13.8247C33.96 14.02 34.4263 14.1836 34.9438 14.3154C35.4663 14.4473 35.9253 14.5132 36.3208 14.5132C37.1313 14.5132 37.5366 14.2788 37.5366 13.8101C37.5366 13.6343 37.4829 13.4927 37.3755 13.3853C37.2681 13.2729 37.0825 13.1484 36.8188 13.0117C36.5552 12.8701 36.2036 12.7065 35.7642 12.521C35.1343 12.2573 34.6704 12.0132 34.3726 11.7886C34.0796 11.564 33.8647 11.3076 33.728 11.0195C33.5962 10.7266 33.5303 10.3677 33.5303 9.94287C33.5303 9.21533 33.811 8.65381 34.3726 8.2583C34.939 7.85791 35.7397 7.65771 36.7749 7.65771C37.7612 7.65771 38.7207 7.87256 39.6533 8.30225L38.9795 9.91357C38.5693 9.73779 38.186 9.59375 37.8296 9.48145C37.4731 9.36914 37.1094 9.31299 36.7383 9.31299C36.0791 9.31299 35.7495 9.49121 35.7495 9.84766C35.7495 10.0479 35.8545 10.2212 36.0645 10.3677C36.2793 10.5142 36.7456 10.7314 37.4634 11.0195C38.103 11.2783 38.5718 11.52 38.8696 11.7446C39.1675 11.9692 39.3872 12.228 39.5288 12.521C39.6704 12.814 39.7412 13.1631 39.7412 13.5684ZM41.3892 5.69482C41.3892 4.96729 41.7944 4.60352 42.605 4.60352C43.4155 4.60352 43.8208 4.96729 43.8208 5.69482C43.8208 6.0415 43.7183 6.3125 43.5132 6.50781C43.313 6.69824 43.0103 6.79346 42.605 6.79346C41.7944 6.79346 41.3892 6.42725 41.3892 5.69482ZM43.7183 16H41.4844V7.81152H43.7183V16ZM49.519 14.3667C49.9097 14.3667 50.3784 14.2812 50.9253 14.1104V15.7729C50.3687 16.022 49.6851 16.1465 48.8745 16.1465C47.981 16.1465 47.3291 15.9219 46.9189 15.4727C46.5137 15.0186 46.311 14.3398 46.311 13.4365V9.48877H45.2417V8.54395L46.4722 7.79688L47.1167 6.06836H48.5449V7.81152H50.8374V9.48877H48.5449V13.4365C48.5449 13.7539 48.6328 13.9883 48.8086 14.1396C48.9893 14.291 49.2261 14.3667 49.519 14.3667ZM55.979 9.24707C55.5054 9.24707 55.1343 9.39844 54.8657 9.70117C54.5972 9.99902 54.4434 10.4238 54.4043 10.9756H57.5391C57.5293 10.4238 57.3853 9.99902 57.1069 9.70117C56.8286 9.39844 56.4526 9.24707 55.979 9.24707ZM56.2939 16.1465C54.9756 16.1465 53.9453 15.7827 53.2031 15.0552C52.4609 14.3276 52.0898 13.2974 52.0898 11.9644C52.0898 10.5923 52.4316 9.53271 53.1152 8.78564C53.8037 8.03369 54.7534 7.65771 55.9644 7.65771C57.1216 7.65771 58.0225 7.9873 58.667 8.64648C59.3115 9.30566 59.6338 10.2163 59.6338 11.3784V12.4624H54.353C54.3774 13.0972 54.5654 13.5928 54.917 13.9492C55.2686 14.3057 55.7617 14.4839 56.3965 14.4839C56.8896 14.4839 57.356 14.4326 57.7954 14.3301C58.2349 14.2275 58.6938 14.064 59.1724 13.8394V15.5679C58.7817 15.7632 58.3643 15.9072 57.9199 16C57.4756 16.0977 56.9336 16.1465 56.2939 16.1465Z" fill="#0F62FE"/>
<path d="M30 28C21.729 28 15 34.729 15 43C15 51.271 21.729 58 30 58C38.271 58 45 51.271 45 43C45 34.729 38.271 28 30 28ZM18 43C18 41.6515 18.234 40.357 18.6465 39.1465L21 41.5L24 44.5V47.5L27 50.5L28.5 52V54.8965C22.5915 54.154 18 49.108 18 43ZM39.495 50.3095C38.5155 49.5205 37.0305 49 36 49V47.5C36 46.7044 35.6839 45.9413 35.1213 45.3787C34.5587 44.8161 33.7956 44.5 33 44.5H27V40C27.7956 40 28.5587 39.6839 29.1213 39.1213C29.6839 38.5587 30 37.7956 30 37V35.5H31.5C32.2956 35.5 33.0587 35.1839 33.6213 34.6213C34.1839 34.0587 34.5 33.2956 34.5 32.5V31.8835C38.892 33.667 42 37.975 42 43C41.9997 45.647 41.1184 48.2187 39.495 50.3095Z" fill="#0F62FE"/>
</svg>
